<?xml version="1.0" encoding="UTF-8" standalone="no"?>
<svg width="128px" height="98px" viewBox="0 0 128 98" version="1.1" xmlns="http://www.w3.org/2000/svg" xmlns:xlink="http://www.w3.org/1999/xlink" xmlns:sketch="http://www.bohemiancoding.com/sketch/ns">
    <!-- Generator: Sketch 3.3.1 (12002) - http://www.bohemiancoding.com/sketch -->
    <title>banner-logo</title>
    <desc>Created with Sketch.</desc>
    <defs></defs>
    <g id="Page-1" stroke="none" stroke-width="1" fill="none" fill-rule="evenodd" sketch:type="MSPage">
        <g id="Desktop-HD" sketch:type="MSArtboardGroup" transform="translate(-656.000000, -158.000000)" fill="#FFFFFF">
            <path d="M684.148649,158.189189 L656.905405,172.189189 L684.148649,186.378378 C684.148649,186.378378 705.527027,176.918919 718.959459,176.162162 C732.391892,175.405405 756.418919,186.189189 756.418919,186.189189 L783.094595,172.378378 L756.797297,158 C756.797297,158 732.391892,168.594595 718.959459,168.216216 C707.418919,168.216216 684.148649,158.189189 684.148649,158.189189 Z M684.148649,193 L656.905405,207 L684.148649,221.189189 C684.148649,221.189189 705.527027,211.72973 718.959459,210.972973 C732.391892,210.216216 756.418919,221 756.418919,221 L783.094595,207.189189 L756.797297,192.810811 C756.797297,192.810811 732.391892,203.405405 718.959459,203.027027 C707.418919,203.027027 684.148649,193 684.148649,193 Z M684.148649,227.810811 L656.905405,241.810811 L684.148649,256 C684.148649,256 705.527027,246.540541 718.959459,245.783784 C732.391892,245.027027 756.418919,255.810811 756.418919,255.810811 L783.094595,242 L756.797297,227.621622 C756.797297,227.621622 732.391892,238.216216 718.959459,237.837838 C707.418919,237.837838 684.148649,227.810811 684.148649,227.810811 Z" id="banner-logo" sketch:type="MSShapeGroup"></path>
        </g>
    </g>
</svg>